<?xml version="1.0" standalone="no"?>
<!DOCTYPE svg PUBLIC "-//W3C//DTD SVG 20010904//EN"
 "http://www.w3.org/TR/2001/REC-SVG-20010904/DTD/svg10.dtd">
<svg version="1.0" xmlns="http://www.w3.org/2000/svg"
 width="1200.000000pt" height="904.000000pt" viewBox="0 0 1200.000000 904.000000"
 preserveAspectRatio="xMidYMid meet">

<g transform="translate(0.000000,904.000000) scale(0.100000,-0.100000)"
fill="#000000" stroke="none">
<path d="M5945 8769 c-1463 -91 -2790 -592 -3709 -1400 -621 -546 -1002 -1201
-1111 -1909 -23 -144 -31 -476 -16 -626 52 -511 251 -1008 580 -1447 210 -282
476 -551 769 -778 l34 -26 -31 -119 c-84 -332 -221 -602 -457 -899 -111 -140
-469 -498 -639 -639 -241 -200 -618 -473 -857 -620 -43 -27 -78 -49 -78 -50 0
-1 195 95 433 214 1069 535 1963 944 2740 1255 l268 107 137 -50 c429 -155
953 -278 1457 -341 1670 -210 3374 143 4605 954 1510 995 2047 2511 1376 3882
-643 1313 -2301 2272 -4266 2467 -353 35 -894 46 -1235 25z m805 -289 c1563
-76 2947 -617 3825 -1495 484 -483 766 -1025 846 -1625 16 -120 16 -426 0
-550 -64 -499 -282 -981 -634 -1400 -785 -935 -2131 -1554 -3712 -1706 -228
-21 -855 -30 -1096 -15 -706 45 -1373 184 -1988 413 -67 25 -116 37 -132 34
-89 -17 -846 -330 -1417 -585 -62 -28 -109 -45 -105 -38 5 7 41 62 81 122 133
199 262 491 323 728 25 97 69 314 69 336 0 9 -19 29 -43 46 -239 168 -582 489
-759 710 -563 704 -746 1499 -523 2276 293 1019 1256 1891 2619 2374 807 286
1744 418 2646 375z"/>
</g>
</svg>
